<svg width="82" height="30" viewBox="0 0 82 30" fill="none" xmlns="http://www.w3.org/2000/svg">
<rect width="30" height="30" rx="2.29885" fill="#009966"/>
<path d="M13.7611 22.3769H18.8555C18.9991 22.3769 19.1154 22.2606 19.1154 22.117V18.4496C19.1154 18.306 18.9991 18.1896 18.8555 18.1896H16.9394C16.8483 18.1896 16.764 18.142 16.7166 18.0643C13.7884 13.2679 9.32307 9.17741 6.70771 8.17245C6.54522 8.11002 6.37934 8.23481 6.37934 8.40888V12.834C6.37934 12.9213 6.42352 13.0028 6.49582 13.0516C10.5828 15.8095 12.8281 20.1708 13.511 22.1956C13.5473 22.3033 13.6474 22.3769 13.7611 22.3769Z" fill="#F4F3EE"/>
<path d="M18.3393 9.95926C18.3605 9.83419 18.4688 9.74264 18.5956 9.74264L23.3132 9.74264C23.474 9.74264 23.5963 9.88727 23.5695 10.0459L22.4258 16.8143C22.4046 16.9394 22.2963 17.0309 22.1695 17.0309L17.4519 17.0309C17.291 17.0309 17.1688 16.8863 17.1956 16.7277L18.3393 9.95926Z" fill="#F4F3EE"/>
<g clip-path="url(#clip0_24_73)">
<path d="M39.0617 22.4385L34.5977 9.39655H37.5737L40.9349 19.8651H40.3397L43.7008 9.39655H46.6768L42.2128 22.4385H39.0617ZM50.6876 22.6486C49.6723 22.6486 48.7911 22.4269 48.0442 21.9833C47.2973 21.5282 46.7196 20.9213 46.3111 20.1627C45.9027 19.4041 45.6984 18.5639 45.6984 17.6419C45.6984 16.6849 45.9085 15.8329 46.3286 15.086C46.7605 14.3391 47.3382 13.7497 48.0617 13.3179C48.7853 12.8861 49.6023 12.6702 50.5126 12.6702C51.2712 12.6702 51.9422 12.7927 52.5257 13.0378C53.1093 13.2712 53.5994 13.6038 53.9963 14.0357C54.4047 14.4674 54.714 14.9693 54.9241 15.5411C55.1342 16.1013 55.2392 16.7141 55.2392 17.3793C55.2392 17.566 55.2275 17.7527 55.2042 17.9395C55.1925 18.1145 55.1633 18.2663 55.1166 18.3946H47.9567V16.469H53.6287L52.3857 17.3793C52.5024 16.8774 52.4966 16.4339 52.3682 16.0488C52.2398 15.652 52.0123 15.3428 51.6855 15.121C51.3704 14.8876 50.9794 14.7709 50.5126 14.7709C50.0574 14.7709 49.6665 14.8818 49.3397 15.1035C49.0129 15.3252 48.7678 15.652 48.6044 16.0838C48.441 16.5156 48.3768 17.0408 48.4118 17.6594C48.3652 18.1962 48.4294 18.6689 48.6044 19.0774C48.7795 19.4858 49.0479 19.8068 49.4097 20.0402C49.7715 20.2619 50.2091 20.3728 50.7226 20.3728C51.1895 20.3728 51.5863 20.2794 51.913 20.0927C52.2515 19.906 52.5141 19.6492 52.7008 19.3224L54.8015 20.3203C54.6148 20.7871 54.3172 21.1956 53.9087 21.5457C53.5119 21.8958 53.0393 22.1701 52.4907 22.3685C51.9422 22.5552 51.3412 22.6486 50.6876 22.6486ZM55.9102 22.4385V12.8802H58.361V15.1735L58.1859 14.8409C58.396 14.0357 58.7403 13.493 59.2188 13.2129C59.7089 12.9211 60.2866 12.7752 60.9519 12.7752H61.5121V15.051H60.6893C60.0474 15.051 59.5281 15.2494 59.1312 15.6462C58.7345 16.0313 58.5361 16.5799 58.5361 17.2917V22.4385H55.9102ZM61.7876 22.4385V12.8802H64.4135V22.4385H61.7876ZM61.7876 12.0224V9.39655H64.4135V12.0224H61.7876ZM70.0639 22.5436C68.9085 22.5436 68.0098 22.2343 67.368 21.6157C66.7377 20.9855 66.4226 20.1102 66.4226 18.9898V15.156H64.8121V12.8802H64.8996C65.3898 12.8802 65.7632 12.7577 66.02 12.5126C66.2884 12.2675 66.4226 11.8999 66.4226 11.4097V10.7095H69.0485V12.8802H71.2893V15.156H69.0485V18.8148C69.0485 19.1415 69.1069 19.4158 69.2236 19.6375C69.3403 19.8476 69.5212 20.0052 69.7663 20.1102C70.0114 20.2152 70.3148 20.2678 70.6766 20.2678C70.7583 20.2678 70.8516 20.2619 70.9567 20.2503C71.0617 20.2386 71.1726 20.2269 71.2893 20.2152V22.4385C71.1142 22.4619 70.9158 22.4852 70.6941 22.5086C70.4724 22.5319 70.2623 22.5436 70.0639 22.5436ZM73.4407 26.2898C73.1607 26.2898 72.8864 26.2665 72.618 26.2198C72.3612 26.1731 72.1336 26.0972 71.9353 25.9922V23.839C72.0986 23.8857 72.2912 23.9265 72.513 23.9615C72.7347 23.9965 72.9389 24.014 73.1257 24.014C73.6391 24.014 74.0067 23.8915 74.2286 23.6464C74.4505 23.413 74.6312 23.1446 74.7711 22.8411L75.4188 21.3532L75.3839 23.5414L71.1825 12.8802H74.0008L76.7842 20.4603H75.734L78.5174 12.8802H81.3361L77.2394 23.3313C76.983 23.9849 76.6678 24.5334 76.2942 24.9769C75.921 25.4204 75.4948 25.7471 75.0162 25.9572C74.5496 26.1789 74.0243 26.2898 73.4407 26.2898Z" fill="#161513"/>
</g>
<defs>
<clipPath id="clip0_24_73">
<rect width="46.7693" height="16.8966" fill="white" transform="translate(34.5977 9.39655)"/>
</clipPath>
</defs>
</svg>
